<svg width="226" height="226" viewBox="0 0 226 226" fill="none" xmlns="http://www.w3.org/2000/svg">
<path d="M192.237 110.151C192.237 152.106 158.225 186.118 116.27 186.118C74.315 186.118 40.3037 152.106 40.3037 110.151C40.3037 68.1961 74.315 34.1848 116.27 34.1848C158.225 34.1848 192.237 68.1961 192.237 110.151Z" fill="url(#paint0_radial_11_177)"/>
<path d="M101.629 49.6394L75.6341 75.634H60.0371L44.4404 96.4298C44.4404 96.4298 60.9627 91.8289 70.6017 93.9863L44.4404 127.623L78.7119 100.968C83.4898 111.907 75.6341 127.623 75.6341 127.623L96.4299 112.027V96.4298L122.424 70.4352L127.624 44.4403L101.629 49.6394Z" fill="black" fill-opacity="0.11"/>
<path fill-rule="evenodd" clip-rule="evenodd" d="M131.916 105.403C134.919 102.333 138.506 99.8943 142.465 98.231C146.424 96.5674 150.677 95.7131 154.971 95.7177C169.432 95.7177 181.662 105.22 185.778 118.318H164.657C163.801 118.318 162.98 118.658 162.374 119.263C161.769 119.869 161.429 120.69 161.429 121.546C161.429 122.402 161.769 123.224 162.374 123.829C162.98 124.434 163.801 124.775 164.657 124.775H187.096C187.202 125.84 187.257 126.916 187.257 128.003C187.257 145.835 172.803 160.289 154.971 160.289C150.677 160.294 146.424 159.439 142.465 157.776C138.505 156.113 134.919 153.674 131.916 150.603H151.743C152.599 150.603 153.42 150.263 154.026 149.658C154.631 149.052 154.971 148.231 154.971 147.375C154.971 146.519 154.631 145.697 154.026 145.092C153.42 144.487 152.599 144.146 151.743 144.146H127.005C125.824 142.105 124.872 139.939 124.164 137.689H158.2C159.056 137.689 159.877 137.349 160.483 136.743C161.088 136.138 161.429 135.317 161.429 134.461C161.429 133.604 161.088 132.783 160.483 132.178C159.877 131.572 159.056 131.232 158.2 131.232H122.847C122.16 124.498 123.617 117.718 127.009 111.861H154.971C155.828 111.861 156.649 111.52 157.254 110.915C157.86 110.309 158.2 109.488 158.2 108.632C158.2 107.776 157.86 106.955 157.254 106.349C156.649 105.744 155.828 105.403 154.971 105.403H131.916ZM148.514 118.318C147.658 118.318 146.837 118.658 146.231 119.263C145.626 119.869 145.286 120.69 145.286 121.546C145.286 122.402 145.626 123.224 146.231 123.829C146.837 124.434 147.658 124.775 148.514 124.775H154.971C155.828 124.775 156.649 124.434 157.254 123.829C157.86 123.224 158.2 122.402 158.2 121.546C158.2 120.69 157.86 119.869 157.254 119.263C156.649 118.658 155.828 118.318 154.971 118.318H148.514ZM141.114 123.832C140.509 124.438 139.688 124.777 138.832 124.777C137.976 124.777 137.155 124.438 136.549 123.832H136.546C135.94 123.227 135.6 122.405 135.599 121.549C135.599 121.125 135.682 120.705 135.845 120.313C136.007 119.921 136.245 119.565 136.544 119.265C136.844 118.965 137.2 118.727 137.592 118.565C137.983 118.402 138.403 118.319 138.827 118.319C139.684 118.318 140.505 118.658 141.111 119.264C141.411 119.564 141.65 119.919 141.812 120.311C141.974 120.703 142.058 121.123 142.058 121.548C142.058 121.972 141.974 122.392 141.812 122.784C141.65 123.176 141.411 123.532 141.111 123.832H141.114ZM165.606 136.746C165.904 137.055 166.26 137.301 166.654 137.47C167.048 137.639 167.472 137.728 167.9 137.732C168.329 137.735 168.754 137.654 169.151 137.492C169.548 137.329 169.908 137.089 170.211 136.786C170.514 136.483 170.755 136.123 170.917 135.726C171.079 135.329 171.161 134.904 171.157 134.475C171.153 134.047 171.064 133.623 170.895 133.229C170.726 132.835 170.48 132.479 170.171 132.181V132.178C169.566 131.572 168.745 131.232 167.888 131.231C167.032 131.231 166.211 131.571 165.605 132.176C164.999 132.782 164.658 133.603 164.658 134.459C164.658 135.316 164.998 136.137 165.603 136.743L165.606 136.746Z" fill="black" fill-opacity="0.21"/>
<path d="M102.551 156.864C102.551 156.373 102.474 155.939 102.32 155.563C102.175 155.177 101.915 154.83 101.539 154.521C101.172 154.212 100.661 153.918 100.005 153.639C99.3591 153.359 98.5394 153.075 97.5458 152.785C96.5043 152.477 95.5642 152.134 94.7252 151.758C93.8861 151.372 93.1675 150.933 92.5696 150.442C91.9718 149.95 91.5137 149.386 91.1954 148.749C90.8771 148.112 90.718 147.384 90.718 146.565C90.718 145.745 90.8866 144.988 91.2243 144.294C91.5619 143.599 92.0439 142.996 92.6711 142.485C93.3073 141.964 94.0643 141.559 94.9421 141.27C95.8199 140.981 96.7987 140.836 97.8785 140.836C99.4605 140.836 100.801 141.14 101.9 141.748C103.009 142.345 103.853 143.131 104.432 144.106C105.011 145.07 105.3 146.102 105.3 147.201H102.522C102.522 146.41 102.354 145.711 102.016 145.104C101.678 144.487 101.168 144.004 100.483 143.657C99.7978 143.3 98.9299 143.122 97.8785 143.122C96.8853 143.122 96.0656 143.271 95.4195 143.57C94.7734 143.869 94.291 144.274 93.9727 144.785C93.6643 145.296 93.5101 145.88 93.5101 146.536C93.5101 146.979 93.6016 147.384 93.7847 147.751C93.9777 148.108 94.2717 148.441 94.6671 148.749C95.0723 149.058 95.5832 149.342 96.2004 149.602C96.8275 149.863 97.5751 150.114 98.443 150.355C99.6387 150.692 100.671 151.069 101.539 151.483C102.407 151.898 103.12 152.366 103.68 152.886C104.249 153.397 104.668 153.981 104.938 154.637C105.218 155.283 105.358 156.016 105.358 156.836C105.358 157.694 105.184 158.47 104.837 159.165C104.49 159.859 103.993 160.452 103.347 160.944C102.701 161.436 101.925 161.817 101.018 162.087C100.121 162.347 99.1179 162.478 98.0088 162.478C97.0349 162.478 96.0751 162.342 95.1301 162.072C94.1946 161.802 93.3411 161.397 92.5696 160.857C91.8077 160.317 91.1954 159.652 90.7324 158.861C90.2792 158.061 90.0525 157.135 90.0525 156.084H92.8298C92.8298 156.807 92.97 157.429 93.2495 157.95C93.5291 158.461 93.9101 158.885 94.3924 159.222C94.8843 159.56 95.4389 159.811 96.0561 159.975C96.6828 160.129 97.3339 160.206 98.0088 160.206C98.9831 160.206 99.8077 160.071 100.483 159.801C101.158 159.531 101.669 159.145 102.016 158.644C102.373 158.143 102.551 157.549 102.551 156.864ZM109.886 141.125L115.354 151.7L120.837 141.125H124.005L116.743 154.318V162.188H113.951V154.318L106.689 141.125H109.886ZM133.77 158.991L139.976 141.125H142.999L135.202 162.188H133.046L133.77 158.991ZM127.968 141.125L134.117 158.991L134.883 162.188H132.728L124.945 141.125H127.968Z" fill="black"/>
<path d="M116.039 51.7639C93.6245 51.7639 78.7024 67.1452 78.7024 91.3226C78.7024 123.761 116.039 134.734 116.039 134.734C116.039 134.734 153.375 123.761 153.375 91.3226C153.375 67.1452 138.45 51.7639 116.039 51.7639ZM132.83 122.283C125.772 127.458 118.594 130.212 116.039 131.095C110.388 129.139 82.1596 118.014 82.1596 91.3226C82.1596 69.3923 95.4583 55.2211 116.039 55.2211C136.619 55.2211 149.918 69.3923 149.918 91.3226C149.918 103.548 144.168 113.965 132.83 122.283Z" fill="black"/>
<path d="M130.286 111.851C129.856 111.851 129.37 112.094 128.487 112.534C126.375 113.591 122.443 115.558 116.036 115.558C109.635 115.558 105.699 113.591 103.588 112.534C102.707 112.094 102.221 111.851 101.791 111.851C101.33 111.851 100.862 112.167 100.862 112.878C100.862 116.369 108.238 119.672 116.036 119.672C123.839 119.672 131.212 116.369 131.212 112.878C131.212 112.169 130.748 111.851 130.286 111.851ZM107.858 101.145C110.116 98.9223 110.192 95.1168 108.453 91.263L108.475 91.2824C107.627 89.0296 106.176 87.0674 104.536 85.3471C102.877 83.62 100.975 82.1447 98.8888 80.968C96.8145 79.7943 94.5781 78.9333 92.2527 78.4125C89.9487 77.894 87.569 77.7182 85.2361 78.0376C87.3685 78.8341 89.4165 79.5615 91.4065 80.3873C90.235 80.6471 89.1977 81.1644 88.3781 81.9719C84.9459 85.3501 86.5275 92.3763 91.9082 97.6723C97.2859 102.963 104.43 104.519 107.858 101.145ZM96.9569 88.7477C94.2051 87.0233 92.7032 84.4803 93.6106 83.0696C94.526 81.6578 97.5016 81.9123 100.258 83.6352C103.018 85.3596 104.514 87.9026 103.601 89.3133C102.694 90.7267 99.7198 90.4722 96.9569 88.7477ZM140.667 80.3873C142.658 79.5615 144.706 78.8356 146.837 78.0376C144.503 77.7197 142.13 77.8925 139.823 78.4125C137.514 78.9336 135.261 79.7841 133.187 80.9665C131.102 82.1421 129.2 83.617 127.542 85.3444C125.898 87.0674 124.45 89.0296 123.601 91.2808L123.622 91.263C121.882 95.1156 121.957 98.9223 124.215 101.145C127.645 104.521 134.788 102.966 140.166 97.6711C145.547 92.3774 147.126 85.3501 143.699 81.9704C142.876 81.1644 141.838 80.6455 140.667 80.3873ZM135.112 88.7477C132.355 90.4707 129.379 90.7251 128.465 89.3107C127.557 87.9 129.054 85.3585 131.811 83.6352C134.571 81.9111 137.544 81.6567 138.461 83.0712C139.368 84.4815 137.869 87.0218 135.112 88.7477Z" fill="black"/>
<defs>
<radialGradient id="paint0_radial_11_177" cx="0" cy="0" r="1" gradientUnits="userSpaceOnUse" gradientTransform="translate(116.27 110.151) rotate(180) scale(208.949)">
<stop stop-color="#FF0F00" stop-opacity="0.41"/>
<stop offset="0.557292" stop-color="#090909"/>
</radialGradient>
</defs>
</svg>
