<svg width="73" height="72" viewBox="0 0 73 72" fill="none" xmlns="http://www.w3.org/2000/svg">
<path d="M72.164 35.6639C72.164 55.3419 56.2118 71.2941 36.5337 71.2941C16.8557 71.2941 0.903458 55.3419 0.903458 35.6639C0.903458 15.9858 16.8557 0.0336304 36.5337 0.0336304C56.2118 0.0336304 72.164 15.9858 72.164 35.6639Z" fill="url(#paint0_radial_204_9)"/>
<path d="M29.6665 7.28222L17.4744 19.4744H10.1589L2.8437 29.2281C2.8437 29.2281 10.5931 27.0702 15.114 28.0821L2.8437 43.8588L18.9179 31.3569C21.1589 36.4874 17.4744 43.8588 17.4744 43.8588L27.2282 36.5436V29.2281L39.4203 17.036L41.8588 4.84369L29.6665 7.28222Z" fill="black" fill-opacity="0.11"/>
<path fill-rule="evenodd" clip-rule="evenodd" d="M43.8723 33.437C45.2806 31.9968 46.9628 30.8531 48.8199 30.0729C50.6769 29.2926 52.6714 28.892 54.6857 28.8941C61.4683 28.8941 67.2044 33.3507 69.135 39.4941H59.2286C58.827 39.4941 58.4418 39.6537 58.1579 39.9377C57.8739 40.2217 57.7143 40.6068 57.7143 41.0084C57.7143 41.41 57.8739 41.7951 58.1579 42.0791C58.4418 42.3631 58.827 42.5227 59.2286 42.5227H69.7529C69.8029 43.0224 69.8286 43.5267 69.8286 44.037C69.8286 52.4005 63.0492 59.1798 54.6857 59.1798C52.6714 59.1821 50.6769 58.7813 48.8199 58.0012C46.9627 57.2211 45.2806 56.0771 43.8723 54.637H53.1714C53.573 54.637 53.9581 54.4773 54.2421 54.1934C54.5261 53.9094 54.6857 53.5242 54.6857 53.1227C54.6857 52.7211 54.5261 52.336 54.2421 52.052C53.9581 51.768 53.573 51.6084 53.1714 51.6084H41.569C41.0149 50.6508 40.5681 49.6352 40.2364 48.5798H56.2C56.6015 48.5798 56.9867 48.4202 57.2707 48.1362C57.5547 47.8523 57.7143 47.4671 57.7143 47.0655C57.7143 46.664 57.5547 46.2788 57.2707 45.9948C56.9867 45.7109 56.6015 45.5513 56.2 45.5513H39.6186C39.2965 42.3926 39.9795 39.213 41.5704 36.4655H54.6857C55.0873 36.4655 55.4724 36.3059 55.7564 36.0219C56.0404 35.738 56.2 35.3528 56.2 34.9513C56.2 34.5497 56.0404 34.1645 55.7564 33.8806C55.4724 33.5966 55.0873 33.437 54.6857 33.437H43.8723ZM51.6571 39.4941C51.2556 39.4941 50.8704 39.6537 50.5864 39.9377C50.3025 40.2217 50.1428 40.6068 50.1428 41.0084C50.1428 41.41 50.3025 41.7951 50.5864 42.0791C50.8704 42.3631 51.2556 42.5227 51.6571 42.5227H54.6857C55.0873 42.5227 55.4724 42.3631 55.7564 42.0791C56.0404 41.7951 56.2 41.41 56.2 41.0084C56.2 40.6068 56.0404 40.2217 55.7564 39.9377C55.4724 39.6537 55.0873 39.4941 54.6857 39.4941H51.6571ZM48.1864 42.0805C47.9024 42.3645 47.5173 42.5239 47.1157 42.5239C46.7143 42.5239 46.3292 42.3645 46.0452 42.0805H46.0438C45.7596 41.7965 45.5998 41.4114 45.5996 41.0096C45.5996 40.8108 45.6387 40.6138 45.7147 40.4301C45.7908 40.2463 45.9023 40.0792 46.0429 39.9386C46.1834 39.7979 46.3504 39.6862 46.5342 39.6101C46.7179 39.5338 46.9149 39.4946 47.1137 39.4946C47.5155 39.4945 47.9008 39.6539 48.1848 39.9379C48.3257 40.0784 48.4374 40.2454 48.5137 40.4292C48.5897 40.6131 48.6289 40.8101 48.6289 41.0091C48.6289 41.2081 48.5897 41.4051 48.5137 41.589C48.4374 41.7728 48.3257 41.94 48.1848 42.0805H48.1864ZM59.6738 48.1377C59.8134 48.2823 59.9805 48.3976 60.1653 48.477C60.35 48.5563 60.5487 48.5982 60.7498 48.6C60.9509 48.6016 61.1503 48.5633 61.3365 48.4872C61.5224 48.4111 61.6915 48.2985 61.8337 48.1564C61.9758 48.0142 62.0884 47.8451 62.1645 47.6591C62.2406 47.473 62.2789 47.2736 62.2773 47.0725C62.2755 46.8714 62.2336 46.6727 62.1543 46.488C62.0749 46.3032 61.9596 46.1361 61.815 45.9965V45.995C61.531 45.7109 61.1458 45.5511 60.7441 45.5509C60.3424 45.5507 59.9572 45.7102 59.6731 45.9941C59.3889 46.2781 59.2291 46.6633 59.2291 47.065C59.2289 47.4667 59.3884 47.8521 59.6723 48.1362L59.6738 48.1377Z" fill="black" fill-opacity="0.21"/>
<path d="M36.4252 17.2166C25.9123 17.2166 18.9135 24.4308 18.9135 35.7707C18.9135 50.985 36.4252 56.1316 36.4252 56.1316C36.4252 56.1316 53.9369 50.985 53.9369 35.7707C53.9369 24.4308 46.9368 17.2166 36.4252 17.2166ZM44.3009 50.2918C40.9905 52.7193 37.6238 54.0107 36.4252 54.4251C33.775 53.5075 20.535 48.2896 20.535 35.7707C20.535 25.4848 26.7724 18.8381 36.4252 18.8381C46.078 18.8381 52.3154 25.4848 52.3154 35.7707C52.3154 41.5047 49.6187 46.3905 44.3009 50.2918Z" fill="black"/>
<path d="M43.1075 45.3989C42.9058 45.3989 42.6781 45.5129 42.2637 45.7192C41.2734 46.2153 39.4288 47.1376 36.4239 47.1376C33.4216 47.1376 31.5757 46.2153 30.5854 45.7192C30.1723 45.5129 29.9446 45.3989 29.7429 45.3989C29.5263 45.3989 29.307 45.5473 29.307 45.8808C29.307 47.5183 32.7665 49.0672 36.4239 49.0672C40.0839 49.0672 43.5421 47.5183 43.5421 45.8808C43.5421 45.548 43.3241 45.3989 43.1075 45.3989ZM32.5882 40.3775C33.6473 39.3351 33.6829 37.5502 32.8672 35.7427L32.8775 35.7518C32.4798 34.6952 31.7995 33.7749 31.0302 32.968C30.2522 32.158 29.3599 31.466 28.3815 30.9141C27.4086 30.3636 26.3596 29.9598 25.269 29.7155C24.1883 29.4723 23.0722 29.3898 21.978 29.5397C22.9782 29.9133 23.9387 30.2544 24.8721 30.6417C24.3227 30.7636 23.8361 31.0062 23.4517 31.385C21.8419 32.9694 22.5837 36.2649 25.1074 38.7488C27.6297 41.2303 30.9804 41.96 32.5882 40.3775ZM27.4754 34.563C26.1847 33.7542 25.4803 32.5615 25.9059 31.8998C26.3352 31.2376 27.7309 31.357 29.0235 32.1651C30.3182 32.9739 31.0199 34.1666 30.5918 34.8283C30.1664 35.4912 28.7713 35.3718 27.4754 34.563ZM47.9765 30.6417C48.9104 30.2544 49.871 29.914 50.8704 29.5397C49.7757 29.3906 48.6626 29.4716 47.5808 29.7155C46.4977 29.9599 45.4411 30.3588 44.4682 30.9134C43.4901 31.4648 42.5981 32.1565 41.8207 32.9668C41.0496 33.7749 40.3705 34.6952 39.9724 35.7511L39.982 35.7427C39.166 37.5497 39.2011 39.3351 40.2602 40.3775C41.8688 41.9613 45.2193 41.2317 47.7417 38.7483C50.2652 36.2654 51.006 32.9694 49.3987 31.3842C49.0128 31.0062 48.5257 30.7629 47.9765 30.6417ZM45.371 34.563C44.0778 35.3711 42.682 35.4905 42.2534 34.827C41.8278 34.1654 42.5297 32.9734 43.8229 32.1651C45.1175 31.3565 46.5119 31.2371 46.942 31.9005C47.3674 32.562 46.6644 33.7535 45.371 34.563Z" fill="black"/>
<defs>
<radialGradient id="paint0_radial_204_9" cx="0" cy="0" r="1" gradientUnits="userSpaceOnUse" gradientTransform="translate(36.5337 35.6639) rotate(180) scale(98.0026)">
<stop stop-color="white"/>
<stop offset="0.557292" stop-color="white" stop-opacity="0.41"/>
</radialGradient>
</defs>
</svg>
