<svg width="175" height="106" viewBox="0 0 175 106" fill="none" xmlns="http://www.w3.org/2000/svg">
<path d="M113.672 57.8906C113.672 57.127 113.511 56.4795 113.19 55.9482C112.869 55.417 112.294 54.9355 111.464 54.5039C110.634 54.0723 109.455 53.6351 107.928 53.1924C106.732 52.8493 105.653 52.4619 104.69 52.0303C103.739 51.5876 102.92 51.084 102.233 50.5195C101.547 49.9551 101.021 49.3076 100.656 48.5771C100.291 47.8467 100.108 47.0111 100.108 46.0703C100.108 44.8086 100.446 43.6852 101.121 42.7002C101.807 41.7041 102.765 40.9238 103.993 40.3594C105.222 39.7839 106.66 39.4961 108.31 39.4961C110.136 39.4961 111.685 39.8447 112.958 40.542C114.231 41.2282 115.199 42.1302 115.863 43.248C116.527 44.3548 116.859 45.5391 116.859 46.8008H113.622C113.622 45.8932 113.428 45.0853 113.041 44.377C112.665 43.6686 112.084 43.1152 111.298 42.7168C110.512 42.3073 109.516 42.1025 108.31 42.1025C107.181 42.1025 106.245 42.2741 105.504 42.6172C104.773 42.9603 104.231 43.4251 103.877 44.0117C103.523 44.5983 103.346 45.2679 103.346 46.0205C103.346 46.6956 103.539 47.2988 103.927 47.8301C104.314 48.3503 104.923 48.8206 105.753 49.2412C106.583 49.6618 107.657 50.0602 108.974 50.4365C110.8 50.9456 112.299 51.5378 113.473 52.2129C114.646 52.888 115.509 53.6849 116.062 54.6035C116.627 55.5221 116.909 56.6068 116.909 57.8574C116.909 59.1634 116.561 60.3034 115.863 61.2773C115.166 62.2513 114.187 63.0039 112.925 63.5352C111.663 64.0664 110.18 64.332 108.476 64.332C107.358 64.332 106.257 64.1771 105.172 63.8672C104.098 63.5573 103.119 63.0924 102.233 62.4727C101.359 61.8529 100.656 61.0892 100.125 60.1816C99.6048 59.263 99.3447 58.2005 99.3447 56.9941H102.565C102.565 57.8242 102.726 58.5381 103.047 59.1357C103.368 59.7334 103.805 60.2259 104.358 60.6133C104.912 61.0007 105.543 61.2884 106.251 61.4766C106.959 61.6536 107.701 61.7422 108.476 61.7422C109.593 61.7422 110.534 61.5872 111.298 61.2773C112.073 60.9564 112.659 60.5081 113.058 59.9326C113.467 59.3571 113.672 58.6764 113.672 57.8906ZM128.381 51.9805L134.656 39.8281H138.309L129.991 54.9688V64H126.754V54.9688L118.437 39.8281H122.122L128.381 51.9805ZM156.62 39.8281H160.123L151.175 64H148.685L149.515 60.3477L156.62 39.8281ZM149.93 60.3477L150.81 64H148.319L139.388 39.8281H142.891L149.93 60.3477Z" fill="white"/>
<path d="M90.164 51.6639C90.164 71.3419 74.2118 87.2941 54.5337 87.2941C34.8556 87.2941 18.9034 71.3419 18.9034 51.6639C18.9034 31.9858 34.8556 16.0336 54.5337 16.0336C74.2118 16.0336 90.164 31.9858 90.164 51.6639Z" fill="url(#paint0_radial_6_88)"/>
<path d="M47.6665 23.2822L35.4744 35.4744H28.1589L20.8437 45.2281C20.8437 45.2281 28.5931 43.0702 33.114 44.0821L20.8437 59.8588L36.9179 47.3569C39.1589 52.4874 35.4744 59.8588 35.4744 59.8588L45.2281 52.5436V45.2281L57.4203 33.036L59.8588 20.8437L47.6665 23.2822Z" fill="black" fill-opacity="0.11"/>
<path fill-rule="evenodd" clip-rule="evenodd" d="M61.8723 49.437C63.2806 47.9968 64.9628 46.8531 66.8199 46.0729C68.6769 45.2926 70.6714 44.892 72.6857 44.8941C79.4683 44.8941 85.2044 49.3507 87.135 55.4941H77.2286C76.827 55.4941 76.4418 55.6537 76.1579 55.9377C75.8739 56.2217 75.7143 56.6068 75.7143 57.0084C75.7143 57.41 75.8739 57.7951 76.1579 58.0791C76.4418 58.3631 76.827 58.5227 77.2286 58.5227H87.7529C87.8029 59.0224 87.8286 59.5267 87.8286 60.037C87.8286 68.4005 81.0492 75.1798 72.6857 75.1798C70.6714 75.1821 68.6769 74.7813 66.8199 74.0012C64.9627 73.2211 63.2806 72.0771 61.8723 70.637H71.1714C71.573 70.637 71.9581 70.4773 72.2421 70.1934C72.5261 69.9094 72.6857 69.5242 72.6857 69.1227C72.6857 68.7211 72.5261 68.336 72.2421 68.052C71.9581 67.768 71.573 67.6084 71.1714 67.6084H59.569C59.0149 66.6508 58.5681 65.6352 58.2364 64.5798H74.2C74.6015 64.5798 74.9867 64.4202 75.2707 64.1362C75.5547 63.8523 75.7143 63.4671 75.7143 63.0655C75.7143 62.664 75.5547 62.2788 75.2707 61.9948C74.9867 61.7109 74.6015 61.5513 74.2 61.5513H57.6186C57.2965 58.3926 57.9795 55.213 59.5704 52.4655H72.6857C73.0873 52.4655 73.4724 52.3059 73.7564 52.0219C74.0404 51.738 74.2 51.3528 74.2 50.9513C74.2 50.5497 74.0404 50.1645 73.7564 49.8806C73.4724 49.5966 73.0873 49.437 72.6857 49.437H61.8723ZM69.6571 55.4941C69.2556 55.4941 68.8704 55.6537 68.5864 55.9377C68.3025 56.2217 68.1428 56.6068 68.1428 57.0084C68.1428 57.41 68.3025 57.7951 68.5864 58.0791C68.8704 58.3631 69.2556 58.5227 69.6571 58.5227H72.6857C73.0873 58.5227 73.4724 58.3631 73.7564 58.0791C74.0404 57.7951 74.2 57.41 74.2 57.0084C74.2 56.6068 74.0404 56.2217 73.7564 55.9377C73.4724 55.6537 73.0873 55.4941 72.6857 55.4941H69.6571ZM66.1864 58.0805C65.9024 58.3645 65.5173 58.5239 65.1157 58.5239C64.7143 58.5239 64.3292 58.3645 64.0452 58.0805H64.0438C63.7596 57.7965 63.5998 57.4114 63.5996 57.0096C63.5996 56.8108 63.6387 56.6138 63.7147 56.4301C63.7908 56.2463 63.9023 56.0792 64.0429 55.9386C64.1834 55.7979 64.3504 55.6862 64.5342 55.6101C64.7179 55.5338 64.9149 55.4946 65.1137 55.4946C65.5155 55.4945 65.9008 55.6539 66.1848 55.9379C66.3257 56.0784 66.4374 56.2454 66.5137 56.4292C66.5897 56.6131 66.6289 56.8101 66.6289 57.0091C66.6289 57.2081 66.5897 57.4051 66.5137 57.589C66.4374 57.7728 66.3257 57.94 66.1848 58.0805H66.1864ZM77.6738 64.1377C77.8134 64.2823 77.9805 64.3976 78.1653 64.477C78.35 64.5563 78.5487 64.5982 78.7498 64.6C78.9509 64.6016 79.1503 64.5633 79.3365 64.4872C79.5224 64.4111 79.6915 64.2985 79.8337 64.1564C79.9758 64.0142 80.0884 63.8451 80.1645 63.6591C80.2406 63.473 80.2789 63.2736 80.2773 63.0725C80.2755 62.8714 80.2336 62.6727 80.1543 62.488C80.0749 62.3032 79.9596 62.1361 79.815 61.9965V61.995C79.531 61.7109 79.1458 61.5511 78.7441 61.5509C78.3424 61.5507 77.9572 61.7102 77.6731 61.9941C77.3889 62.2781 77.2291 62.6633 77.2291 63.065C77.2289 63.4667 77.3884 63.8521 77.6723 64.1362L77.6738 64.1377Z" fill="black" fill-opacity="0.21"/>
<path d="M54.4252 33.2166C43.9123 33.2166 36.9135 40.4308 36.9135 51.7707C36.9135 66.985 54.4252 72.1316 54.4252 72.1316C54.4252 72.1316 71.9369 66.985 71.9369 51.7707C71.9369 40.4308 64.9368 33.2166 54.4252 33.2166ZM62.3009 66.2918C58.9905 68.7193 55.6238 70.0107 54.4252 70.4251C51.775 69.5074 38.535 64.2895 38.535 51.7707C38.535 41.4848 44.7724 34.8381 54.4252 34.8381C64.078 34.8381 70.3154 41.4848 70.3154 51.7707C70.3154 57.5047 67.6187 62.3905 62.3009 66.2918Z" fill="black"/>
<path d="M61.1075 61.3989C60.9058 61.3989 60.6781 61.5129 60.2638 61.7192C59.2734 62.2153 57.4288 63.1376 54.424 63.1376C51.4216 63.1376 49.5757 62.2153 48.5854 61.7192C48.1723 61.5129 47.9446 61.3989 47.7429 61.3989C47.5263 61.3989 47.307 61.5473 47.307 61.8808C47.307 63.5183 50.7665 65.0672 54.424 65.0672C58.0839 65.0672 61.5422 63.5183 61.5422 61.8808C61.5422 61.548 61.3241 61.3989 61.1075 61.3989ZM50.5882 56.3775C51.6473 55.3351 51.6829 53.5502 50.8672 51.7427L50.8775 51.7518C50.4799 50.6952 49.7995 49.7749 49.0302 48.968C48.2523 48.158 47.3599 47.466 46.3815 46.9141C45.4086 46.3636 44.3597 45.9598 43.269 45.7155C42.1884 45.4723 41.0722 45.3898 39.978 45.5397C40.9782 45.9133 41.9388 46.2544 42.8721 46.6417C42.3227 46.7636 41.8361 47.0062 41.4517 47.385C39.8419 48.9694 40.5837 52.2649 43.1074 54.7488C45.6297 57.2303 48.9804 57.96 50.5882 56.3775ZM45.4754 50.563C44.1847 49.7542 43.4803 48.5615 43.9059 47.8998C44.3353 47.2376 45.7309 47.357 47.0236 48.1651C48.3182 48.9739 49.0199 50.1666 48.5918 50.8283C48.1664 51.4912 46.7713 51.3718 45.4754 50.563ZM65.9765 46.6417C66.9104 46.2544 67.871 45.914 68.8704 45.5397C67.7757 45.3906 66.6626 45.4716 65.5808 45.7155C64.4977 45.9599 63.4411 46.3588 62.4682 46.9134C61.4901 47.4648 60.5981 48.1565 59.8207 48.9668C59.0497 49.7749 58.3705 50.6952 57.9724 51.7511L57.982 51.7427C57.1661 53.5497 57.2012 55.3351 58.2603 56.3775C59.8688 57.9613 63.2193 57.2317 65.7417 54.7483C68.2652 52.2654 69.006 48.9694 67.3987 47.3842C67.0128 47.0062 66.5258 46.7629 65.9765 46.6417ZM63.3711 50.563C62.0779 51.3711 60.682 51.4905 60.2534 50.827C59.8278 50.1654 60.5297 48.9734 61.8229 48.1651C63.1176 47.3565 64.5119 47.2371 64.942 47.9005C65.3674 48.562 64.6644 49.7535 63.3711 50.563Z" fill="black"/>
<defs>
<radialGradient id="paint0_radial_6_88" cx="0" cy="0" r="1" gradientUnits="userSpaceOnUse" gradientTransform="translate(54.5337 51.6638) rotate(180) scale(98.0026)">
<stop stop-color="white"/>
<stop offset="0.557292" stop-color="white" stop-opacity="0.41"/>
</radialGradient>
</defs>
</svg>
